<svg id="digital-trends-blue-grey" xmlns="http://www.w3.org/2000/svg" width="700" height="138" viewBox="0 0 700 138">
  <rect id="Rectangle_1" data-name="Rectangle 1" width="700" height="138" fill="none"/>
  <path id="Path_1" data-name="Path 1" d="M.3,9.864H23.187c18.137,0,31.092,12.523,31.092,28.933h0c0,16.41-12.523,29.365-31.092,29.365H.3ZM12.823,21.523v35.41h9.932c10.364,0,17.705-6.909,17.705-17.273v-.432c0-10.364-7.341-17.705-17.705-17.705ZM64.211,9.864H77.166v58.3H64.211ZM87.1,39.228h0C87.1,22.387,100.053,9,117.758,9c10.364,0,16.841,3.023,22.887,7.773l-8.2,9.932c-4.318-3.886-8.637-6.046-15.114-6.046-9.068,0-16.841,8.2-16.841,18.137h0c0,10.8,7.341,18.569,17.705,18.569a22.1,22.1,0,0,0,12.091-3.455v-8.2H117.326V34.478h25.046V59.524a34.03,34.03,0,0,1-24.614,9.932C99.621,69.456,87.1,56.5,87.1,39.228ZM154.9,9.864h12.955v58.3H154.9Zm38,12.091H175.192V9.864h48.365V21.955H205.852V68.161H192.9V21.955ZM244.285,9.432h11.659L280.99,68.161H267.6l-5.182-12.955H237.807l-5.182,12.955H219.67ZM257.24,43.978l-7.773-19-7.773,19ZM287.9,9.864h12.955V56.5h28.933V68.161H287.9Zm82.912,14.25H353.538V9.864h50.956v14.25H386.789V68.161H370.38l.432-44.047Zm38.433-14.25h27.637c9.068,0,15.114,2.159,19,6.046,3.455,3.455,5.182,7.773,5.182,13.387h0c0,9.068-4.75,14.682-12.091,17.705l13.819,20.3H444.223L432.563,49.592h-7.341V67.3H409.244V9.864Zm26.774,28.069c5.614,0,8.637-2.591,8.637-6.909h0c0-4.75-3.455-6.909-8.637-6.909h-10.8v14.25l10.8-.432ZM468.405,9.864h47.07V23.25H484.383v8.637h28.069V44.41H484.383v9.068h31.092V67.3h-47.07Zm55.706,0h15.114l23.751,30.66V9.864h15.978v58.3H565.135L540.089,36.205V68.161H524.112V9.864Zm65.207,0h22.455c20.728,0,32.819,11.659,32.819,28.933h0c0,16.841-12.091,29.365-33.251,29.365H589.318ZM605.3,24.114v29.8h6.477c9.932,0,16.41-5.182,16.41-14.682h0c0-9.5-6.477-14.682-16.41-14.682H605.3Zm41.456,35.41,9.068-10.8c6.046,4.75,12.091,6.909,19,6.909,4.318,0,6.909-1.3,6.909-3.886h0c0-2.591-1.727-3.455-9.932-5.614C659.275,43.115,649.774,40.092,649.774,28h0c0-10.8,8.637-18.569,22.455-18.569,9.932,0,17.705,2.591,23.751,7.773l-8.2,11.659a27.879,27.879,0,0,0-16.41-5.614c-3.886,0-6.046,1.3-6.046,3.886h0c0,2.591,1.727,3.886,10.364,5.614,13.387,3.023,21.592,7.341,21.592,18.137h0c0,11.659-9.5,19-23.751,19A43.028,43.028,0,0,1,646.752,59.524Z" transform="translate(0.995 29.865)" fill="#2953e8"/>
</svg>
