<svg id="Layer_2" data-name="Layer 2" xmlns="http://www.w3.org/2000/svg" width="700" height="200" viewBox="0 0 700 200">
  <g id="Layer_1" data-name="Layer 1">
    <g id="Layer_1-2" data-name="Layer 1-2" transform="translate(2.25 25)">
      <path id="Path_9" data-name="Path 9" d="M.36,79.322A13.375,13.375,0,0,0,13.8,92.7H68.735V79.135H13.673V65.572h54.5A14.187,14.187,0,0,0,82.3,51.947V25.135A15,15,0,0,0,68.173,10.51H13.923A14.5,14.5,0,0,0,.36,25.072ZM68.735,52.01H13.673V24.072H68.735Z" transform="translate(-0.36 30.178)" fill="#2953e8"/>
      <path id="Path_10" data-name="Path 10" d="M98.36,10.51H44.11a15.313,15.313,0,0,0-14.5,14.625V79.072A14.5,14.5,0,0,0,44.11,92.7H98.235V106.26H43.173v13.563H98.36A13.312,13.312,0,0,0,111.8,106.7V25.447A14.375,14.375,0,0,0,98.36,10.51Zm0,68.75H43.173V24.072H98.235Z" transform="translate(153.203 30.178)" fill="#2953e8"/>
      <path id="Path_11" data-name="Path 11" d="M69.625,10.51H28.938A15.063,15.063,0,0,0,15,25.135V92.7H28.563V23.948H69.875A14.688,14.688,0,0,1,83.75,38.573v54H97.313v-54A28.313,28.313,0,0,0,69.625,10.51Z" transform="translate(76.5 30.178)" fill="#2953e8"/>
      <path id="Path_12" data-name="Path 12" d="M112.875,79.135H57.813V38.572A15.687,15.687,0,0,1,72.688,23.947h40.187V92.7h13.563V25.135A14.062,14.062,0,0,0,113.375,10.51H72.688A29.187,29.187,0,0,0,44.25,38.572V79.26A14.5,14.5,0,0,0,59.125,92.573H83.063c12.063,0,25-5,29.813-13.313V92.572" transform="translate(230.063 30.178)" fill="#2953e8"/>
      <path id="Path_13" data-name="Path 13" d="M116.393,4H102.83V126.875h13.563V58.25h41.5V44.688h-41.5Z" transform="translate(537.608 -4)" fill="#2953e8"/>
      <path id="Path_14" data-name="Path 14" d="M126.65,44.688H74.15A16,16,0,0,0,58.9,59.313V113.25a15.187,15.187,0,0,0,15.25,13.625h66.938V4H126.65Zm0,68.75H72.463V58.25H126.65Z" transform="translate(306.975 -4)" fill="#2953e8"/>
      <path id="Path_15" data-name="Path 15" d="M88.232,79.385A15,15,0,0,0,103.545,92.7H156.92V79.135H101.795V65.573h56.25a13,13,0,0,0,12.5-13.625V25.135a13.812,13.812,0,0,0-12.5-14.625H103.482A16.125,16.125,0,0,0,88.17,25.135Zm68.75-27.375H101.795V24.073H156.92Z" transform="translate(460.643 30.178)" fill="#2953e8"/>
      <path id="Path_16" data-name="Path 16" d="M142.665,10.51H88.415A15.688,15.688,0,0,0,73.54,25.135V79.072A14.875,14.875,0,0,0,88.415,92.7h53.75V106.26H87.915v13.563h54.75a12.938,12.938,0,0,0,13.063-13.312V25.26a14.062,14.062,0,0,0-13.062-14.75Zm-.5,68.75H87.915V24.072h54.25Z" transform="translate(383.835 30.178)" fill="#2953e8"/>
    </g>
    <rect id="Rectangle_4" data-name="Rectangle 4" width="700" height="200" fill="none"/>
  </g>
</svg>
