<svg id="Layer_2" data-name="Layer 2" xmlns="http://www.w3.org/2000/svg" width="700" height="164" viewBox="0 0 700 164">
  <g id="Layer_1" data-name="Layer 1">
    <rect id="Rectangle_3" data-name="Rectangle 3" width="700" height="164" fill="none"/>
    <g id="Layer_1-2" data-name="Layer 1-2" transform="translate(8.13 25.729)">
      <path id="Path_8" data-name="Path 8" d="M62.352,5c-.463,7.976-.926,15.9-1.389,24.134l-11.938-.36c-.309-5.146-.566-9.88-.823-14.871H29.47V49.46h8.182l2.11-7.873h8.285V66.081H39.762C39.093,63.508,38.372,60.935,37.7,58H29.47v37.77H48.149c.617-5.146,1.184-10.7,1.852-16.312l12.556.412c.36,8.388.669,16.621.978,25.06H2.558v-8.8l8.593-1.492V14.726L1.58,13.7V5ZM308.835,138.791c0-2.367.309-4.58.463-6.844l-7.1-1.441V103.748h.978a26.3,26.3,0,0,0,13.173,1.9,21.1,21.1,0,0,0,19.039-13.173,43.582,43.582,0,0,0,2.521-8.491,86.81,86.81,0,0,0,.772-23.671,53.465,53.465,0,0,0-2.161-11.372,18.782,18.782,0,0,0-16.775-14.923,20.583,20.583,0,0,0-18.628,7l-.823.72-2.161-7.616-20.274,2.882v7.1l7.667,1.132v85.214l-6.484,1.441a39.95,39.95,0,0,1-.412,6.9ZM302.2,92.17V52.238a7,7,0,0,1,5.918-7.153h.926a9.314,9.314,0,0,1,11.732,7.05,34.786,34.786,0,0,1,1.6,8.233,115.628,115.628,0,0,1-.412,24.6c-.412,2.676-1.184,5.146-1.853,7.976a2.624,2.624,0,0,1-1.9,2.007,21.149,21.149,0,0,1-15.952-.566Zm202.538,1.492V53.936a29.687,29.687,0,0,0-.412-5.146,15.849,15.849,0,0,0-10.292-13.225,22.744,22.744,0,0,0-20.583,2.264c-1.7,1.081-3.242,2.419-4.734,3.551-.566-2.11-1.184-4.22-1.8-6.432l-19.76,2.83v7.41l7.667.926V96.389l-6.69,1.441v7.256h30a42.909,42.909,0,0,1,.412-7.307L471.7,96.338V51.724a5.146,5.146,0,0,1,3.5-4.631,11.424,11.424,0,0,1,6.947-.617,6.484,6.484,0,0,1,5.146,4.271,23.311,23.311,0,0,1,1.132,6.226v47.856h23.259a42.9,42.9,0,0,1,.412-7.256l-7.153-1.441Zm-411.663.257V52.341a5.146,5.146,0,0,1,1.286-3.551,8.285,8.285,0,0,1,7.976-2.624,7.41,7.41,0,0,1,7.153,6.792A45.079,45.079,0,0,1,109.9,58.1v46.312h23.413V97.624l-7.153-1.389V53.525a24.905,24.905,0,0,0-.463-5.506,15.8,15.8,0,0,0-12.3-13.225A23.156,23.156,0,0,0,91.837,39.94l-1.852,1.647c-.617-2.316-1.184-4.425-1.8-6.587L68.321,37.83v7.41l7.616.823c.515,2.573.412,48.731,0,50.377l-6.329,1.184c0,2.521-.257,4.837-.36,7.256H99.556c0-2.47.257-4.837.412-7.307l-6.9-1.389a18.218,18.218,0,0,1-.1-2.264ZM612.179,44.777V89.134a7.358,7.358,0,0,1-4.219,5.455,19.142,19.142,0,0,1-5.146.72,8.388,8.388,0,0,1-8.851-7.976,39.581,39.581,0,0,1-.36-5.506V41.689a32.32,32.32,0,0,0-1.7-7.513L569.367,36.8v6.484l7.719.875V85.326a35.6,35.6,0,0,0,.463,5.712,16.261,16.261,0,0,0,9.159,12.659,23.156,23.156,0,0,0,25.42-3.242c.412-.412.875-.72,1.492-1.235l1.852,5.609h19.451a69.93,69.93,0,0,1,.772-7.2l-7.05-1.441V42.564a26.5,26.5,0,0,0-1.9-8.285L604.1,36.852v6.535l7.719.772ZM275.336,73.954a18.628,18.628,0,0,0,1.544-5.146,56.6,56.6,0,0,0-2.007-15.437,28.765,28.765,0,0,0-7.307-13.225,23.156,23.156,0,0,0-22.281-5.4,25.111,25.111,0,0,0-18.01,15.077A44.254,44.254,0,0,0,223.466,65a48.422,48.422,0,0,0,3.859,25.009,25.729,25.729,0,0,0,16.312,14.871,33.859,33.859,0,0,0,26.655-3.4,34.759,34.759,0,0,0,3.7-2.47l-2.676-6.535-1.9.772a31.7,31.7,0,0,1-13.07,2.573A13.328,13.328,0,0,1,244.976,89.7a25.729,25.729,0,0,1-3.911-15.18Zm-34.477-7.616a6.587,6.587,0,0,1,0-1.389A52.641,52.641,0,0,1,244.513,47.4a5.146,5.146,0,0,1,3.5-3.19A7.77,7.77,0,0,1,258.3,48.019,31.338,31.338,0,0,1,261.031,59.8c0,1.7.309,3.448.515,5.557Zm327.066,2.316a48.834,48.834,0,0,0-3.19-18.988,24.34,24.34,0,0,0-8.8-11.938,24.082,24.082,0,0,0-19.708-3.139,24.391,24.391,0,0,0-18.062,15.437,49.656,49.656,0,0,0-.36,38.285,25.729,25.729,0,0,0,21.973,17.341,34.477,34.477,0,0,0,24.237-6.123l1.132-.72-2.83-6.329-2.727,1.081a30.874,30.874,0,0,1-12.71,2.264,13.122,13.122,0,0,1-9.983-4.786,20.583,20.583,0,0,1-4.271-9.468,24.959,24.959,0,0,1-.566-7.05l34.374-.412a21.047,21.047,0,0,0,1.492-5.455Zm-36.021-2.316a21.148,21.148,0,0,1,.309-6.741A82.329,82.329,0,0,1,535.1,47.916c1.286-4.786,9.674-5.506,12.35-2.007a18.112,18.112,0,0,1,3.19,5.969,51.918,51.918,0,0,1,2.11,13.482ZM445.662,68.6a50.736,50.736,0,0,0-3.654-20.12,23,23,0,0,0-9.983-11.835,25.729,25.729,0,0,0-22.436-.772A25.111,25.111,0,0,0,396.108,49.46,46.313,46.313,0,0,0,392.2,66.029a47.032,47.032,0,0,0,4.374,24.7,25.369,25.369,0,0,0,18.319,14.563,34.734,34.734,0,0,0,25.729-5.146c.823-.515,1.544-1.132,2.367-1.7L440,92.478l-2.676,1.081a31.544,31.544,0,0,1-12.916,2.264,12.813,12.813,0,0,1-9.726-4.837,24.6,24.6,0,0,1-5.146-16.415l34.425-.412a23.519,23.519,0,0,0,1.7-5.557Zm-36.432-2.264a42.749,42.749,0,0,1,.515-5.455,47.493,47.493,0,0,1,3.6-14.048,4.322,4.322,0,0,1,2.521-2.419,7.822,7.822,0,0,1,10.858,3.7,30.051,30.051,0,0,1,3.19,10.858c.257,2.007.36,4.065.566,6.329ZM175.3,37.676v7.41l7.2.823V96.338l-6.278,1.6v6.947h29.949a39.359,39.359,0,0,1,.412-7l-6.947-1.6V48.276a14.717,14.717,0,0,1,7.153-2.47c.412,3.345.772,6.587,1.235,9.983l11.166.463c.72-6.432,1.441-12.556,2.11-18.628a6.021,6.021,0,0,0-6.123-2.83,39.056,39.056,0,0,0-15.437,4.786l-2.419,1.441-1.544-6.175Zm494.716,67.255.463-7.05-6.9-1.544V47.916l7-2.47c.515,3.654.926,6.947,1.338,10.292l11.064.72c.72-6.432,1.441-12.607,2.058-18.576a5.609,5.609,0,0,0-6.381-2.727,71.01,71.01,0,0,0-9.159,2.007,92.309,92.309,0,0,0-8.645,3.859c-.463-1.8-.875-3.756-1.492-5.866l-20.583,2.83v7.358l7.307.926V96.6l-6.226,1.544a54.267,54.267,0,0,1-.309,7.05ZM376.708,55.789l11.218.412,2.058-18.628a6.124,6.124,0,0,0-6.484-2.779,39.829,39.829,0,0,0-11.681,2.985c-1.955.926-3.859,2.007-5.866,3.036l-1.7-6.021-20.274,2.882v7.41l7.358.823V96.338l-6.381,1.6v7H374.8c0-2.367.412-4.58.617-7.05l-7.1-1.544V47.967l7.153-2.624c.515,3.808.926,7.05,1.338,10.446Zm-230.686-33.7L142.06,35.463l-8.851.412c0,3.087-.257,5.866-.412,8.7l7.873,1.286V89.494a36.015,36.015,0,0,0,0,4.065,13.173,13.173,0,0,0,11.475,12.093,35.2,35.2,0,0,0,12.71-.412,13.894,13.894,0,0,0,5.66-1.852l-.772-7.307h-7.05a5.146,5.146,0,0,1-5.146-4.734,24.9,24.9,0,0,1,0-2.727q0-20.583,0-40.909a10.289,10.289,0,0,1,.566-1.544l11.166-1.286c.257-2.933.515-5.763.772-8.9H157.395V21.518Z" transform="translate(-1.58 -5)" fill="#2953e8" fill-rule="evenodd"/>
    </g>
  </g>
</svg>
