<svg id="Layer_2" data-name="Layer 2" xmlns="http://www.w3.org/2000/svg" width="700" height="288" viewBox="0 0 700 288">
  <g id="Layer_1" data-name="Layer 1">
    <rect id="Rectangle_2" data-name="Rectangle 2" width="700" height="288" fill="none"/>
    <path id="Path_2" data-name="Path 2" d="M65.38,19.92h15.9c17.961,0,20.834,0,26.941,3.5a47.865,47.865,0,0,1,21.732,28.827c2.335,6.286,2.335,6.286,7.633,4.67l3.5-1.078V33.032c0-12.483-.449-23.618-.629-24.7V6.36H1.08v8.082l5.209.629a17.063,17.063,0,0,1,13.111,6.2c5.388,7.813,6.286,18.5,6.286,69.238,0,53.882-1.078,67.083-6.286,73.908a14.189,14.189,0,0,1-10.956,5.747c-7.9,1.527-7.633,1.347-7.633,5.388,0,2.245,0,3.5.629,3.682s88.007,0,88.905,0,1.167-6.825,0-7.454a37.176,37.176,0,0,0-6.556-1.347,45.8,45.8,0,0,1-7.633-1.706c-5.658-2.514-8.98-8.98-10.058-21.732-.9-8.98-1.527-25.325-1.527-37.538V98.588h5.3a74.267,74.267,0,0,1,19.487,1.976,24.516,24.516,0,0,1,11.405,17.422l1.167,4.67h8.082V63.385h-8.082l-1.167,4.67A23.528,23.528,0,0,1,89.267,85.207a21.553,21.553,0,0,1-8.98,1.706H64.212V73.353c0-14.728.808-45.979,1.257-50.829Z" transform="translate(6.463 50.755)" fill="#2953e8"/>
    <path id="Path_3" data-name="Path 3" d="M157.541,83.776c-4.131-8.352-11.764-14.009-27.749-20.745a63.94,63.94,0,0,1-23.618-13.56,13.74,13.74,0,0,1-3.951-11.764,16.165,16.165,0,0,1,20.655-15.446c10.687,2.245,17.961,9.609,23.439,25.235,2.065,5.568,2.335,5.747,6.107,4.4l2.335-.9V18.04l-1.706-.718a102.646,102.646,0,0,0-40.5-5.658,47.416,47.416,0,0,0-32.688,13.56A35.921,35.921,0,0,0,69,53.961,31.162,31.162,0,0,0,77.975,75.6a52.535,52.535,0,0,0,22.451,12.932c20.475,7.992,25.953,12.752,25.863,22.63A17.961,17.961,0,0,1,113.9,128.5a32.509,32.509,0,0,1-14.1,0C89.65,125.8,81.837,117,75.192,100.659l-1.706-4.221H71.51a11.944,11.944,0,0,0-3.412.808l-1.347.629v36.819l2.245.988a135.244,135.244,0,0,0,27.48,6.017h13.291a50.559,50.559,0,0,0,17.063-1.616,41.4,41.4,0,0,0,31.162-26.941,31.88,31.88,0,0,0,1.8-11.674,32.779,32.779,0,0,0-2.245-17.691Z" transform="translate(532.687 91.52)" fill="#2953e8"/>
    <path id="Path_4" data-name="Path 4" d="M137.266,16.245a60.8,60.8,0,0,0-49.841,1.167A57.923,57.923,0,0,0,57.431,53.333a69.326,69.326,0,0,0-3.592,26.941,73.815,73.815,0,0,0,1.257,14.1A58.731,58.731,0,0,0,102.872,141.7a89.8,89.8,0,0,0,23.079,0,62.862,62.862,0,0,0,22.361-8.98c6.915-4.67,14.009-11.674,14.009-13.83s-2.425-4.4-3.412-4.4a17.962,17.962,0,0,0-4.311,2.245,37.987,37.987,0,0,1-22.181,6.107A35.113,35.113,0,0,1,104.308,111.8a30.623,30.623,0,0,1-6.735-8.98,62.863,62.863,0,0,1-6.466-26.941V71.923h73.01V69.5a57.2,57.2,0,0,0,.09-8.352C161.6,39.145,152.623,23.878,137.266,16.245Zm-36.819,44.9h-8.98v-1.8a23.812,23.812,0,0,1,.718-6.376c3.143-19.936,10.507-31.88,19.757-31.88s13.83,11.764,14.907,33.317v6.107h-8.98Z" transform="translate(428.494 91.519)" fill="#2953e8"/>
    <path id="Path_5" data-name="Path 5" d="M117.868,11.47a27.48,27.48,0,0,0-13.47,2.784A44.183,44.183,0,0,0,83.833,34.459l-1.8,3.143V11.739H80.779c-1.527,0-50.469,9.789-51.906,10.327S27.8,22.875,27.8,25.3s0,2.694,1.078,2.874l5.029.988c4.311.9,5.568,1.527,7.364,3.862,3.233,4.4,3.951,12.034,3.951,44.9a259.532,259.532,0,0,1-1.886,44,10.687,10.687,0,0,1-8.98,8.531l-4.49.9h-1.8v3.413c0,2.425,0,3.592.449,3.862s17.063,0,37.179,0h36.55v-3.862a10.867,10.867,0,0,0,0-3.772,75.971,75.971,0,0,1-12.932-1.8c-4.131-1.706-6.107-5.388-7-12.932S80.69,85.557,80.959,67.6s0-17.961,1.437-19.4a23.618,23.618,0,0,1,16.165-4.76,32.6,32.6,0,0,1,15.087,3.772,22.452,22.452,0,0,0,5.209,1.976c.629,0,12.662-31.97,12.662-33.407S124.693,11.47,117.868,11.47Z" transform="translate(221.498 91.265)" fill="#2953e8"/>
    <path id="Path_6" data-name="Path 6" d="M135.554,66.452a59.27,59.27,0,0,0-26.941-46.967,68.61,68.61,0,0,0-61.785-1.347A59.629,59.629,0,0,0,18.092,52.353a88.726,88.726,0,0,0,0,50.739,56.4,56.4,0,0,0,14.189,23.888,53.882,53.882,0,0,0,30.443,15.177,141.8,141.8,0,0,0,22.271,0,59.45,59.45,0,0,0,49.571-48.584A113.511,113.511,0,0,0,135.554,66.452ZM53.744,53.969c2.694-21.643,8.98-32.688,19.847-32.688A13.56,13.56,0,0,1,84.726,26.22c8.98,8.98,13.021,25.863,12.932,52.535a98.066,98.066,0,0,1-6.915,43.824A20.565,20.565,0,0,1,80.595,132.1c-13.471,3.951-23.079-8.98-26.941-35.921a256.838,256.838,0,0,1,.09-42.208Z" transform="translate(114.817 91.332)" fill="#2953e8"/>
    <path id="Path_7" data-name="Path 7" d="M127.82,57.547a39.962,39.962,0,0,0-11.495-.539A49.033,49.033,0,0,0,95.581,61.5l-4.131,1.8V34.647A196.041,196.041,0,0,0,91.45,6c-1.616,0-52,9.609-52.625,10.058s-.539,1.347-.449,2.964,0,2.6,5.927,3.951a19.128,19.128,0,0,1,4.849,1.8,16.165,16.165,0,0,1,4.939,8.98A154.1,154.1,0,0,1,55.619,64.1V179.949l3.592.808c5.209,1.167,20.206,3.682,25.055,4.131a175.383,175.383,0,0,0,29.276,0A59.629,59.629,0,0,0,162.3,147.44a90.343,90.343,0,0,0,4.939-20.116,121.951,121.951,0,0,0-.9-27.749A50.829,50.829,0,0,0,127.82,57.547ZM95.491,175.459c-2.065,0-2.425-.449-2.874-1.437S91.271,114.482,91.54,91.4V73.442l3.233-.988a28.288,28.288,0,0,1,7.723-.988,13.471,13.471,0,0,1,8.262,1.886c8.98,4.221,14.279,14.638,16.973,30.443a140.543,140.543,0,0,1,0,28.917,63.941,63.941,0,0,1-15.356,37.9,17.961,17.961,0,0,1-8.98,4.76,22.45,22.45,0,0,1-7.9.09Z" transform="translate(305.75 47.882)" fill="#2953e8"/>
  </g>
</svg>
