<svg xmlns="http://www.w3.org/2000/svg" width="102" height="22" viewBox="0 0 102 22" fill="none">
<path d="M4.825 17.7H10.425V21H0.550003V3.45001H4.825V17.7Z" fill="#0FCA93"/>
<path d="M14.6141 5.60001C13.8641 5.60001 13.2474 5.38334 12.7641 4.95001C12.2974 4.50001 12.0641 3.95001 12.0641 3.30001C12.0641 2.63334 12.2974 2.08334 12.7641 1.65001C13.2474 1.20001 13.8641 0.975006 14.6141 0.975006C15.3474 0.975006 15.9474 1.20001 16.4141 1.65001C16.8974 2.08334 17.1391 2.63334 17.1391 3.30001C17.1391 3.95001 16.8974 4.50001 16.4141 4.95001C15.9474 5.38334 15.3474 5.60001 14.6141 5.60001ZM16.7391 7.05001V21H12.4641V7.05001H16.7391Z" fill="#2953E8"/>
<path d="M28.3371 6.90001C29.9704 6.90001 31.2704 7.43334 32.2371 8.50001C33.2204 9.55001 33.7121 11 33.7121 12.85V21H29.4621V13.425C29.4621 12.4917 29.2204 11.7667 28.7371 11.25C28.2538 10.7333 27.6038 10.475 26.7871 10.475C25.9704 10.475 25.3204 10.7333 24.8371 11.25C24.3538 11.7667 24.1121 12.4917 24.1121 13.425V21H19.8371V7.05001H24.1121V8.90001C24.5454 8.28334 25.1288 7.80001 25.8621 7.45001C26.5954 7.08334 27.4204 6.90001 28.3371 6.90001Z" fill="#2953E8"/>
<path d="M45.2078 21L40.9578 15.15V21H36.6828V2.50001H40.9578V12.725L45.1828 7.05001H50.4578L44.6578 14.05L50.5078 21H45.2078Z" fill="#2953E8"/>
<path d="M59.9119 17.375V21H57.7369C56.1869 21 54.9786 20.625 54.1119 19.875C53.2453 19.1083 52.8119 17.8667 52.8119 16.15V10.6H51.1119V7.05001H52.8119V3.65001H57.0869V7.05001H59.8869V10.6H57.0869V16.2C57.0869 16.6167 57.1869 16.9167 57.3869 17.1C57.5869 17.2833 57.9203 17.375 58.3869 17.375H59.9119Z" fill="#0FCA93"/>
<path d="M66.5682 9.37501C67.0682 8.60834 67.6932 8.00834 68.4432 7.57501C69.1932 7.12501 70.0265 6.90001 70.9432 6.90001V11.425H69.7682C68.7015 11.425 67.9015 11.6583 67.3682 12.125C66.8348 12.575 66.5682 13.375 66.5682 14.525V21H62.2932V7.05001H66.5682V9.37501Z" fill="#2953E8"/>
<path d="M86.1365 13.8C86.1365 14.2 86.1115 14.6167 86.0615 15.05H76.3865C76.4532 15.9167 76.7282 16.5833 77.2115 17.05C77.7115 17.5 78.3199 17.725 79.0365 17.725C80.1032 17.725 80.8449 17.275 81.2615 16.375H85.8115C85.5782 17.2917 85.1532 18.1167 84.5365 18.85C83.9365 19.5833 83.1782 20.1583 82.2615 20.575C81.3449 20.9917 80.3199 21.2 79.1865 21.2C77.8199 21.2 76.6032 20.9083 75.5365 20.325C74.4699 19.7417 73.6365 18.9083 73.0365 17.825C72.4365 16.7417 72.1365 15.475 72.1365 14.025C72.1365 12.575 72.4282 11.3083 73.0115 10.225C73.6115 9.14167 74.4449 8.30834 75.5115 7.72501C76.5782 7.14167 77.8032 6.85001 79.1865 6.85001C80.5365 6.85001 81.7365 7.13334 82.7865 7.70001C83.8365 8.26667 84.6532 9.07501 85.2365 10.125C85.8365 11.175 86.1365 12.4 86.1365 13.8ZM81.7615 12.675C81.7615 11.9417 81.5115 11.3583 81.0115 10.925C80.5115 10.4917 79.8865 10.275 79.1365 10.275C78.4199 10.275 77.8115 10.4833 77.3115 10.9C76.8282 11.3167 76.5282 11.9083 76.4115 12.675H81.7615Z" fill="#2953E8"/>
<path d="M101.542 13.8C101.542 14.2 101.517 14.6167 101.467 15.05H91.7918C91.8585 15.9167 92.1335 16.5833 92.6168 17.05C93.1168 17.5 93.7251 17.725 94.4418 17.725C95.5085 17.725 96.2501 17.275 96.6668 16.375H101.217C100.983 17.2917 100.558 18.1167 99.9418 18.85C99.3418 19.5833 98.5835 20.1583 97.6668 20.575C96.7501 20.9917 95.7251 21.2 94.5918 21.2C93.2251 21.2 92.0085 20.9083 90.9418 20.325C89.8751 19.7417 89.0418 18.9083 88.4418 17.825C87.8418 16.7417 87.5418 15.475 87.5418 14.025C87.5418 12.575 87.8335 11.3083 88.4168 10.225C89.0168 9.14167 89.8501 8.30834 90.9168 7.72501C91.9835 7.14167 93.2085 6.85001 94.5918 6.85001C95.9418 6.85001 97.1418 7.13334 98.1918 7.70001C99.2418 8.26667 100.058 9.07501 100.642 10.125C101.242 11.175 101.542 12.4 101.542 13.8ZM97.1668 12.675C97.1668 11.9417 96.9168 11.3583 96.4168 10.925C95.9168 10.4917 95.2918 10.275 94.5418 10.275C93.8251 10.275 93.2168 10.4833 92.7168 10.9C92.2335 11.3167 91.9335 11.9083 91.8168 12.675H97.1668Z" fill="#2953E8"/>
</svg>