<svg xmlns="http://www.w3.org/2000/svg" width="210.524" height="129.609" viewBox="0 0 210.524 129.609">
  <g id="Group_2" data-name="Group 2" transform="translate(-3020.472 -4087.16)">
    <path id="Path_5" data-name="Path 5" d="M268.055,135.66H244.43a20.459,20.459,0,0,0-20.457,20.457v28.258a20.459,20.459,0,0,0,20.457,20.461s16.609-.1,24.164,15.3a62.854,62.854,0,0,1,5.977,20.363c1.234,10.523,15.09,13.418,20.48,4.3,10.379-17.555,18.051-44.676,7.527-82.961a35.768,35.768,0,0,0-34.523-26.176Zm0,0" transform="translate(2803.999 3959)" fill="#0fca93"/>
    <path id="Path_6" data-name="Path 6" d="M379.973,135.66H356.352a20.459,20.459,0,0,0-20.461,20.457v28.258a20.46,20.46,0,0,0,20.461,20.461s16.605-.1,24.164,15.3a63.048,63.048,0,0,1,5.977,20.363c1.234,10.523,15.086,13.418,20.48,4.3,10.379-17.555,18.047-44.676,7.527-82.961a35.769,35.769,0,0,0-34.527-26.176Zm0,0" transform="translate(2803.999 3959)" fill="#0fca93"/>
    <path id="Path_8" data-name="Path 8" d="M268.055,128.16H244.43a27.991,27.991,0,0,0-27.957,27.957v28.258a28,28,0,0,0,28,27.961h0c.215,0,11.988.105,17.387,11.105a55.274,55.274,0,0,1,5.262,17.934c.941,8.031,5.793,16.395,18.527,16.395a18.314,18.314,0,0,0,15.855-9.152c10.184-17.227,19.891-46.605,8.3-88.766a43.351,43.351,0,0,0-41.758-31.691Zm20.539,112.82a3.422,3.422,0,0,1-3.812,1.691,3.329,3.329,0,0,1-2.762-3.047,70.225,70.225,0,0,0-6.691-22.793c-9.41-19.18-29.609-19.5-30.863-19.5h-.035a12.972,12.972,0,0,1-12.957-12.957V156.117A12.972,12.972,0,0,1,244.43,143.16h23.625a28.308,28.308,0,0,1,27.293,20.664c8.184,29.777,5.91,55.738-6.754,77.156Zm0,0" transform="translate(2803.999 3959)" fill="#2953e8"/>
    <path id="Path_9" data-name="Path 9" d="M328.391,156.117v28.258a27.987,27.987,0,0,0,27.938,27.961c.492,0,12.141.273,17.453,11.105a55.178,55.178,0,0,1,5.262,17.934c.941,8.031,6.488,16.395,18.527,16.395a18.315,18.315,0,0,0,15.859-9.152c10.184-17.223,19.891-46.605,8.3-88.766a43.347,43.347,0,0,0-41.754-31.691H356.352a27.991,27.991,0,0,0-27.961,27.957Zm15,0a12.975,12.975,0,0,1,12.961-12.957h23.625a28.3,28.3,0,0,1,27.289,20.668c8.184,29.773,5.914,55.734-6.75,77.152a3.426,3.426,0,0,1-3.816,1.691,3.329,3.329,0,0,1-2.758-3.047,70.2,70.2,0,0,0-6.691-22.793c-9.414-19.18-29.613-19.5-30.863-19.5h-.035a12.973,12.973,0,0,1-12.961-12.957Zm0,0" transform="translate(2803.999 3959)" fill="#2953e8"/>
  </g>
</svg>
