<svg xmlns="http://www.w3.org/2000/svg" viewBox="0 0 640 5"><path d="M188.1 1h-2.3 2.3zM0 0v4.3l.1-.2H.4c.2.1.3-.1.5-.1h.2c.2 0 .4.1.6.1h.2l.2-.1c.1 0 .3-.1.4-.1H5.9l.1-.1v-.1h.1s.1 0 .1-.1l.1-.1H6.6c.3 0 .7 0 1-.2l.4-.2c.2 0 .3-.1.5-.1l.2-.1.2-.2.1-.1h.5c.1 0 .2-.1.3-.1h.9c.6.5 1.4.6 2.3.5 1.2-.2 1.7-.8 3.5-.8 1.7.3 4.4 0 7.1.3 1.2.2 2.3.4 3.5.5 1.7-.2 3.6-.3 5.3-.5 1.1 0 1.4.5 2.9.5 2.1-.1 2.7-.9 4.7-1.1 3.2.3 4 .1 7.1.3-.1.5.7.5 1.2.8.2.1-.2.4 0 .5.2.1 1.3 0 1.2.3 3.1 0 5.4-1.2 8.2-1.6 1.1-.2 2.3.1 3.5 0 1.5-.1 2-.6 3.5-.8.3.4.7.6 1.2.8.2-.3 1-.6 1.2-.3 1.2 0 .8-.7 2.3-.5 1.2.8 2.4 0 4.1.5 1.3-.6 2.7-.8 4.1-.8.1.4-.2 1 .6 1.1 1.3-.7 1.6-.4 2.3 0 2.2-.9 5.3-.7 7.6-.8.6 0 .4-.2.6-.3.4 0 .8.1 1.2.3.6 0 .3-.2.6-.3.4 0 .8.1 1.2.3l2.4-.3c1.3 0 2.7.4 4.1 0 .8.4 3.4.9 1.8 1.6 1.6-.1 3.1-.1 4.7 0 .4 0 .7.3.6.3.6 0 1.2-.1 1.8-.3.8 0 1.6.1 2.4.3-.2 0 .5-.3.6-.3h.6c.2 0 .4-.1.6-.3.8 0 1.6.1 2.3.3.1 0-.1-.5 0-.5.8-.1 1.6-.1 2.4 0 .8.1 1.6.1 2.3 0 1.3 0 2.9-.3 4.1-.3.7 0 .9.3 1.8.3 2 0 1.4-.5 2.3 0 .8.2 1.6.2 2.4.3 1.1 0 1.3-.3 2.3-.3.8 0 .8.3 1.8.3.6 0 1-.2 1.8-.3 3.1-.3 6.3-.4 9.4-.3 1 .1 1.2.3 2.3.3 1.1 0 2.3-.5 3.5-.5 1.4-.1 2.8 0 4.2.2.7-.7 4.1-.3 4.1-.3.2 0 0-.3.6-.3 2.8-.1 4.4.6 5.9 0 .8 0 .5.5 1.2.5.2-.4 1.3-.2 1.8 0 .8-.9 5.9-.5 7.6-.5.3 0 .7-.3.6-.3.6 0 .7.3 1.2.3.9 0 .6-.3 1.2 0 1 .1 2 .1 2.9 0 1.5 0 3.1-.2 4.6-.3h2.3c.2 0 .5 0 .7.1.7.4 1.5.8 2.3 1.1 1.8-.4 2.3.1 3.5-.3.6.2.2 1 1.8.8 1.9.2 1.8-.4 2.9-.5 1.6.7 4.9-.1 6.5-.3.2.4 1.3.3 1.8.5-.2-.6.7-.4 1.8-.5 1.3-.1 3.2-.4 4.7-.5.8.1.7.6 1.2.8 3.1-.5 6.3-.5 9.4 0 .8-.1.7-.6 1.2-.8.8.1 1.6 0 2.4-.3 0 .7 1.6.7 2.3 1.1 1.7 0 3.4.3 5.3.3.6 0 .6-.2 1.2-.3.6-.1 1.2 0 1.8 0 .5 0 .8-.3 1.2-.3-.2 0 .4.3.6.3 1.7.2 3.5-.6 5.3-.3.2 0 .3.5.6.5.7.1 1.2-.5 2.3-.3 0 .4 1.1.1 1.8.3.5.1.6.7 1.8.5 1.4-.3 4.2-.9 5.9-.3.8-.8 3.7-.8 5.3-.8.2 0 .4.1.6.3 1.1.1 2.7-.1 3.5 0 1.1.1 1.3.5 2.4.5 2 0 3.9 0 5.9-.3.6-.1 1.2-.1 1.8 0 2.2.2 1.3-.4 2.4-.5.8.2.1 1 1.2 1.1 1.3-.6 3.8-.8 6.5-.8.8-.1.3.4.6.5.5.2 1.8-.1 1.8.3.8 0 1.6-.2 2.3-.5h1.2c1 0 2-.2 2.9-.5 1.9-.4 2 0 3.5 0 .8 0 1.1-.4 2.3-.3.1 0 .9.3.6.3 1 0 2.2-.5 3.5-.3.9.2.5.4 1.8.5h.6c.2 0 .4-.1.6-.3 1 0 .9.5 1.8 0 .7-.4 2.4.3 2.9.3-.3 0 .6-.3.6-.3l1.2-.3c1.7.5 3.5.8 5.3.8.5 0 .9-.3 1.2-.3.3.1-.1.6.6.5-.1 0 .1-.1.1-.1.3-.1.6-.2.9-.2.2 0 .3-.1.5-.1.3 0 .5.1.6.2.2.1.5.1.5.2.1 0 .1.2.2.3.1.1.2.1.3.2.1.2.2.4.4.4s.4-.1.6-.1c.2 0 .4-.2.6-.2.3-.1.7.1 1 0l1.2-.2c1.1-.2 1.7.1 2.3-.3.2-.1 1 0 1.2 0 .5-.3 1.2-.4 1.8-.3 1.1 0 1.8.4 2.9.5.6 0 .5-.3.6-.3.5 0 .5.3.6.3 1.3 0 3 .1 3.5 0 .2 0 .8-.3.6-.3 2-.1 1.4.5 2.4 0 1-.2 2-.3 2.9-.3 1.2-.2 1.7-.4 2.9-.5 1.2-.1 2.6.1 4.1 0 .6 0 .7-.3 1.2-.3 2.1-.2 2.2.3 3.5.3 1.2.3 2.2.8 2.9 1.1.3.1.7.2 1 .2l.9.3c.5.1.9.1 1.4.1.5 0 .8-.4 1.3-.4h1c.6.1 1.3.2 1.9.4.5.1 1 .1 1.5-.1l1.1-.3c.3-.1.6-.1.9-.1.4-.1.8-.1 1.3-.2.1-.1.3-.1.5 0s.3.3.5.5.4.4.6.5c.1.1.2.2.4.3.2.1.4.1.5.2.2.1.5.1.8.1.4 0 .8-.1 1.2-.1.2 0 .4 0 .5-.1s.1-.3.2-.3.2.2.4.1 0-.4.2-.4.2.1.5.1.6.1.9.1c.1 0 .3.1.4 0 .1-.1.1-.2.2-.3.3-.3.6-.4 1-.4s.8 0 1.1.1c.2.1.3.1.5.1.4-.1.8-.3 1.2-.4.6-.1 1.1-.2 1.7-.2.4-.1.8 0 1.1-.1h.5c.2 0 .8.1.9.2V3c0 .2-.1.4.1.6.1.1.3.2.5.2.3 0 .5.1.8.2.2.1.8.2.9.2.1 0 .2-.2.4-.2.2-.1.4-.1.6-.2h.6c.3.1.5.3.9.3.2 0 .4 0 .6-.2l.6-.3.9-.6c.3-.2.6-.3.9-.3h.7l1 .1c.9.1 1.8 0 2.6-.3.3-.2.6-.3.9-.5h.5c.2 0 .4-.1.7-.1.4 0 .8-.1 1.3-.1.3 0 .6.1.9.2.6 0 1.1 0 1.7-.1.7-.1 1.4-.1 2.1 0h2c.5 0 1 .1 1.5.1.6.1 1.1.3 1.6.5.2 0 .4.1.6.1h1.6c.2.1.2.1.4 0 .1-.1.2-.2.3-.2.2-.1.2 0 .4.1.3.2.6.2.9.1.1-.1.1-.1.1-.2s0-.1.1-.1c.3-.2.7 0 .9.3.1.2.1.4.2.5s0 .1.1.1l.4.1.5.1c.3 0 .6.1.9.3.2.2.2.3.5.3.2 0 .4-.1.6-.1.2 0 .2.1.5.1s.7-.1 1 0c.2 0 .3.1.5.1s.4.1.6 0c1.1-.1 1.8-.3 3-.3.9 0 1.9.2 2.9.3 1.4.1 2.8.1 4.3.1h1.8c.3 0 .6 0 .9.1.2.1.3.2.5.2.3 0 .6.1.9.1h.8c.2 0 .4 0 .6-.1.1 0 .1-.1.2-.2s.1-.1.3-.1c.2 0 .4-.1.6-.1.5-.1 1.1 0 1.5-.1.4 0 .7 0 1-.3l.3-.3c.1-.1.1-.2.2-.2h.3c.1 0 .3-.1.4-.1h1.1c.2 0 .4-.1.6-.1h.3s.1 0 .1-.1c.1 0 .3.1.4.1.3.1.6.1.9.2.1 0 .2.1.2.1.2 0 .4 0 .6-.1.2-.1.3-.1.5-.1.1 0 .3 0 .4.1.3.1.6.1.9 0 .8-.1 1.6-.1 2.4.1.1 0 .2.1.3.1.1 0 .1.2.2.2h1.1c.3 0 .6.2.9.2.2 0 .3-.1.4-.1h.4c.5.1 1.1.1 1.7.2.4.1.9.1 1.3 0 .3-.1.5-.2.8-.3.5-.1.9-.1 1.4-.2h4.4c.9-.1 1.9.1 2.9 0 .8-.1 1.6-.2 2.3-.3 1.2 0 1 .4 2.4.5-.3 0 .5-.3.6-.3 2.8-.3 1.6.9 2.9.3 1.6-.7 1.9.6 2.9 0 .3-.2.7.3.6.3 2.7.2 5.5.2 8.2 0 1-.1 2 0 3 0 .4 0 0-.3.6 0 .3.2.7-.3.6-.3 1.1 0 1.3.3 2.3.3-.2 0 .4-.3.6-.3 2.1-.3 3.5.4 4.7.5 3.4.2 4.4-.5 6.5-.5 2 0 3.8.2 5.9.3 2 .1 3.8-.1 5.9 0 .8 0 .7.2 1.8.3s2.1-.4 3.1-.2c.7.1 1.3.1 2 0 .5-.1 1-.2 1.5-.4l.6-.3c.7-.3 1.5-.4 2.2-.4l1.9-.1c.3 0 .6 0 .8-.1l.6-.3c.2-.1.4-.2.6-.2.2 0 .4.2.6.3.2.1.4.1.7.1h.5c.2-.1.4-.2.5-.3.2-.1.5-.1.7-.1.2 0 .3-.1.5-.1h4.2c.3 0 .5-.1.8-.1.1 0 .1-.1.3 0 .3.1.5.5.8.6h.2c.2 0 .4 0 .5.1.2.1.4 0 .5.1.3.1.6.2.8.3h.3c.1 0 .1.2.2.2.4.2.9-.2 1.2-.2 2.2 0 4.3.2 6.5.5 1 .1 2.8.2 4.1.3.6-.1 1.2-.1 1.8-.3.5 0 1.1.6 1.2.3s1.4-.3 1.8-.5c-.1.1.1.2.1.2.2.1.4.1.5.1h1c.2.1.2.2.3.3.2.1.5.1.6.1.1 0 .2.1.2.1 0 .1-.1.2 0 .3h.5c.2 0 .4 0 .6-.1.2-.1.3 0 .4-.1.1 0 .1-.2.2-.2s.2-.1.2-.1c.1 0 .3.1.4.1.2.1.4.1.6.1.4 0 .7-.1 1.1-.1.2 0 .6.1.8-.1.1-.2 0-.4-.2-.4.1-.2.4-.1.6-.1.3.1.6.2.9.2.2-.1.3-.3.3-.4 0-.1-.1-.1-.2-.2 0-.1 0-.3.1-.3s.5.1.5 0v-.3c0-.1 0-.2.1-.2s.2.1.3.1h.4c.2 0 .2-.2.3-.2.2-.1.4-.1.6 0 .2 0 .4.1.6.2.1 0 .2.1.3.2.3.2.7.2 1 .1.1-.1.3-.1.5-.1s.2 0 .2-.2c0-.1 0-.3.1-.4.2-.2.2-.1.5.1s.7.1 1 .1c1 .2 2.1.2 3.2.2h1.3c.2 0 .5-.1.6-.3.6 0 .7.3 1.2.3.8 0 .8-.4 1.8-.3 0 .5 1.5.1 2.3.3.9.1 1.3.7 2.3.5.1-.2 0-.5.6-.5 1.2.7 4.9.7 6.5.5 1.5.8 4.8.6 6.5.8.2 0 .8.3.6.3 1.6 0 3-.5 4.7-.3 1.4.4 3.8.4 5.3.8-.1-.5.6-.6 1.8-.5 1.3.4 4.4 0 4.7.8 1.7-.1 2.1-.5 2.9 0 .3.2.7-.3.6-.3h2.9c.4 0 .1-.3.6 0s2.2-.3 2.3-.3c.9 0 .6.3 1.2 0H637.2c.2 0 .3 0 .5-.1.1-.1.1-.1.2-.1H638.8l.2.1h.3c.1 0 .2 0 .3.1h.7V0H0z"/></svg>